<?xml version="1.0" encoding="utf-8"?>
<!-- Generator: Adobe Illustrator 25.4.1, SVG Export Plug-In . SVG Version: 6.00 Build 0)  -->
<svg version="1.1" id="Layer_1" xmlns="http://www.w3.org/2000/svg" xmlns:xlink="http://www.w3.org/1999/xlink" x="0px" y="0px"
	 viewBox="0 0 55.8 55.8" style="enable-background:new 0 0 55.8 55.8;" xml:space="preserve">
<style type="text/css">
	.st0{fill:#002F6C;}
	.st1{enable-background:new    ;}
	.st2{fill:none;stroke:#FFFFFF;stroke-width:2;stroke-linecap:round;stroke-linejoin:round;stroke-miterlimit:10;}
	.st3{fill:#FFFFFF;}
</style>
<g>
	<path class="st0" d="M25.8,53.5C10.9,31.8,8.1,29.5,8.1,21.6C8.1,10.7,17,1.8,27.9,1.8s19.8,8.8,19.8,19.8c0,8-2.8,10.2-17.7,31.9
		C28.9,54.9,26.8,54.9,25.8,53.5L25.8,53.5z"/>
</g>
<g>
	<g class="st1">
		<path class="st2" d="M14.7,15.4h5.1V21h5.5v-5.7h5.1v16.2h-5.1V25h-5.5v6.5h-5.1V15.4z"/>
	</g>
	<g>
		<g>
			<path class="st3" d="M35.1,32.6H30c-0.6,0-1-0.4-1-1V15.4c0-0.6,0.4-1,1-1h8.4c2.1,0,3.8,0.5,4.8,1.6c1.1,1,1.7,2.5,1.7,4.4
				c0,1.9-0.6,3.4-1.8,4.5c-1.2,1.1-3,1.7-5.2,1.7h-1.8v5C36.1,32.2,35.7,32.6,35.1,32.6z M31,30.6h3.1v-5c0-0.6,0.4-1,1-1h2.8
				c1.7,0,3-0.4,3.8-1.1c0.8-0.7,1.2-1.7,1.2-3.1c0-1.3-0.4-2.3-1.1-3c-0.7-0.7-1.9-1-3.4-1H31V30.6z M36.3,23.3h-1.2
				c-0.6,0-1-0.4-1-1v-3.7c0-0.6,0.4-1,1-1h1.4c1.1,0,2.1,0.3,2.6,0.9c0,0,0.1,0.1,0.1,0.1c0.3,0.4,0.7,1,0.7,1.9
				c0,0.8-0.4,1.6-0.9,2.1C38.3,23.2,37.1,23.3,36.3,23.3z M36.1,21.3h0.2c0.8,0,1.2-0.2,1.3-0.2c0,0,0.1-0.1,0.1-0.1
				c0.1-0.1,0.2-0.3,0.2-0.5c0-0.2,0-0.3-0.2-0.6c-0.1-0.1-0.5-0.3-1.2-0.3h-0.4V21.3z"/>
		</g>
	</g>
</g>
</svg>
